# xmcd
#
# Track frame offsets: 
#        150
#        16401
#        26637
#        44490
#        63994
#        78998
#        102929
#        124383
#        139464
#        165944
#        184549
#        203980
#        221161
#        235190
#        259420
#
# Disc length: 3679 seconds
#
# Revision: 0
# Processed by: cddbd v1.5.2PL0 Copyright (c) Steve Scherf et al.
# Submitted via: ExactAudioCopy v0.99pb3
#
DISCID=d90e5d0f
DTITLE=Empty Pubs - Végtelen sor
DYEAR=2007
DGENRE=Blues
TTITLE0=Elsõ szerelem
TTITLE1=Hogyha fázol
TTITLE2=Mese
TTITLE3=Mondd el
TTITLE4=Igazságtalan
TTITLE5=Segíts
TTITLE6=Kérdezem
TTITLE7=Õszi hajnal
TTITLE8=Klublúz
TTITLE9=Veled...
TTITLE10=Végtelen sor
TTITLE11=Szexi
TTITLE12=Maria Magdalena
TTITLE13=Easy Rider
TTITLE14=Szieszta
EXTD=
EXTT0=
EXTT1=
EXTT2=
EXTT3=
EXTT4=
EXTT5=
EXTT6=
EXTT7=
EXTT8=
EXTT9=
EXTT10=
EXTT11=
EXTT12=
EXTT13=
EXTT14=
PLAYORDER=
